# Blender v2.79 (sub 0) OBJ File: 'untitled.blend'
# www.blender.org
mtllib untitled.mtl
o Cube
v -0.573373 -0.180600 -3.375280
v -0.573373 -0.180600 3.375280
v -1.252336 -0.180600 3.375279
v -1.252336 -0.180600 -3.375281
v -0.573372 11.454987 -3.375278
v -0.573373 11.454987 3.375282
v -1.252336 11.454987 3.375279
v -1.252336 11.454987 -3.375280
vt 0.000000 0.000000
vt 0.000000 -1.000000
vt -1.000000 -1.000000
vt -1.000000 0.000000
vt 0.000000 1.000000
vt -1.000000 1.000000
vt -1.000000 0.000000
vt -0.000000 -0.000000
vt 0.000000 0.818597
vt -0.000000 1.818597
vt -1.000000 1.818597
vt -1.000000 0.818597
vt 0.000000 0.818597
vt -0.000000 1.818597
vt -1.000000 1.818597
vt -1.000000 0.818597
vt 0.000000 0.818597
vt 0.000000 1.818597
vt 1.000000 1.818597
vt 1.000000 0.818597
vt 0.000000 0.818597
vt 0.000000 -0.181403
vt -1.000000 -0.181403
vt -1.000000 0.818597
vn 0.0000 -1.0000 -0.0000
vn 0.0000 1.0000 0.0000
vn 1.0000 0.0000 0.0000
vn -0.0000 -0.0000 1.0000
vn -1.0000 -0.0000 -0.0000
vn 0.0000 0.0000 -1.0000
usemtl Holz
s off
f 1/1/1 2/2/1 3/3/1 4/4/1
f 5/5/2 8/6/2 7/7/2 6/8/2
f 1/9/3 5/10/3 6/11/3 2/12/3
f 2/13/4 6/14/4 7/15/4 3/16/4
f 3/17/5 7/18/5 8/19/5 4/20/5
f 5/21/6 1/22/6 4/23/6 8/24/6
